<svg xmlns="http://www.w3.org/2000/svg" viewBox="0 0 99 99"><title>linkedin</title><path d="M49.5,0A49.5,49.5,0,0,1,99,49.5,49.5,49.5,0,0,1,49.5,99a49.5,49.5,0,0,1-35-84.5A49.2,49.2,0,0,1,49.5,0ZM81.8,17.2A45.6,45.6,0,1,0,95.2,49.5,45.8,45.8,0,0,0,81.8,17.2Z" fill="#262626"/><path d="M27.2,50V71.9H37.6V42.1H27.2Zm44.4,1.2c-.7-5.6-3.2-9.1-10.9-9.1-4.4,0-7.5,1.6-8.7,4h-.2v-4H43.5V71.9h8.7V57.1c0-3.9.8-7.7,5.6-7.7s5.1,4.5,5.1,8V71.9h9V55.5a29,29,0,0,0-.3-4.3Zm-39.2-24a5.2,5.2,0,1,0,5.2,5.2,5.2,5.2,0,0,0-5.2-5.2Z" fill="#262626" fill-rule="evenodd"/></svg>