<svg xmlns="http://www.w3.org/2000/svg" viewBox="0 0 99 99.1"><title>twitter</title><path d="M49.5,0a49.5,49.5,0,1,1-35,14.5A49.4,49.4,0,0,1,49.5,0ZM81.8,17.2a45.7,45.7,0,1,0,0,64.6,45.6,45.6,0,0,0,0-64.6Z" fill="#d6d6d6"/><path d="M74.8,34.1a18.9,18.9,0,0,1-6,1.6,9.8,9.8,0,0,0,4.6-5.6,20.8,20.8,0,0,1-6.6,2.4,10.4,10.4,0,0,0-17.9,7,8.5,8.5,0,0,0,.3,2.3A29.2,29.2,0,0,1,27.8,31.2a9.8,9.8,0,0,0-1.5,5.1A10.1,10.1,0,0,0,31,44.8a9.5,9.5,0,0,1-4.7-1.3v.2a9.4,9.4,0,0,0,.7,3.7,10.2,10.2,0,0,0,7.6,6.3,12.4,12.4,0,0,1-2.7.3,6.5,6.5,0,0,1-2-.2A10.7,10.7,0,0,0,39.6,61a21.3,21.3,0,0,1-12.9,4.3H24.2a29.9,29.9,0,0,0,15.9,4.6A29,29,0,0,0,69,46.9a33.4,33.4,0,0,0,.6-6.2V39.4a23.8,23.8,0,0,0,5.2-5.3Z" fill="#d6d6d6" fill-rule="evenodd"/></svg>
