<svg xmlns="http://www.w3.org/2000/svg" viewBox="0 0 99 99"><title>behance</title><path d="M30,51.1h8.1c1.8,0,4.9.8,4.9,4.3,0,1.8-1.4,3.9-3.2,3.9H30ZM56,34.9H70.6v4.8H56ZM68.7,51.1H58a5.4,5.4,0,0,1,10.7,0ZM57.6,54.4H75.5v-.8c0-6.7-4.8-12.2-12.1-12.2A11.8,11.8,0,0,0,51.2,53.6,11.8,11.8,0,0,0,63.4,65.8c7.3,0,10.8-4.2,11.9-9.8H68.7c-.6,2.9-2.3,4.9-5.3,4.9s-5.5-2.9-5.8-6.5ZM49.5,56A8.2,8.2,0,0,0,44,48.3a8.1,8.1,0,0,0-4.2-15H23.5V65.8H39.8A9.8,9.8,0,0,0,49.5,56ZM38.1,46.3H30V39.7h8.1a3.3,3.3,0,0,1,0,6.6Z" fill="#d6d6d6" fill-rule="evenodd"/></svg>
